# xmcd CD database file
#
# Track frame offsets:
#	150
#	11249
#	26088
#	39641
#	52718
#	66021
#	79257
#	94748
#	109671
#	125197
#	139598
#	152971
#
# Disc length: 2259 seconds
#
# Revision: 0
# Processed by: cddbd v1.5.2PL0 Copyright (c) Steve Scherf et al.
# Submitted via: CDex 1.70beta2
#
DISCID=9f08d10c
DTITLE=Workshop 94 - GET UP AND DANCE
DYEAR=2013
DGENRE=Country
TTITLE0=01-Kate Sala - All Good 
TTITLE1=02-Ozgur Oscar and Muruvvet Takac - Boogie Woogie Baby Jill 
TTITLE2=03-Rachael McEnaney - Ding Dang Darn It 
TTITLE3=04-Vikki Morris -  Follow Me Too 
TTITLE4=05-DJ Dan and Winnie - Going Down The Mountain 
TTITLE5=06-Neville Fitzgerald and Julie Harris - Half Past Nothin' 
TTITLE6=07-Petra Van de Velde - I Need A Man Like You!
TTITLE7=08-Dee Musk - Sea of Dreams 
TTITLE8=09-Rep Ghazali Meaney_ Maria Cristina
TTITLE9=10-Kate Sala and Robbie McGowan Hickie - Red Molly 
TTITLE10=11-Maggie Gallagher - The Blarney Roses 
TTITLE11=12-Diane Jackson  - The Hatflied Stroll 
EXTD=YEAR: 2013
EXTT0=
EXTT1=
EXTT2=
EXTT3=
EXTT4=
EXTT5=
EXTT6=
EXTT7=
EXTT8=
EXTT9=
EXTT10=
EXTT11=
PLAYORDER=
